<mxfile host="65bd71144e">
    <diagram id="MO9U_vywGNo2bgRTHo4D" name="Page-1">
        <mxGraphModel dx="668" dy="302" grid="1" gridSize="10" guides="1" tooltips="1" connect="1" arrows="1" fold="1" page="1" pageScale="1" pageWidth="827" pageHeight="1169" math="0" shadow="0">
            <root>
                <mxCell id="0"/>
                <mxCell id="1" parent="0"/>
                <mxCell id="38" value="User Profiles" style="rounded=1;whiteSpace=wrap;html=1;fontSize=14;fillColor=#dae8fc;strokeColor=#6c8ebf;" parent="1" vertex="1">
                    <mxGeometry x="10" y="140" width="120" height="60" as="geometry"/>
                </mxCell>
                <mxCell id="39" value="Course&lt;br&gt;Registrations" style="rounded=1;whiteSpace=wrap;html=1;fontSize=14;fillColor=#dae8fc;strokeColor=#6c8ebf;" parent="1" vertex="1">
                    <mxGeometry x="330" y="180" width="120" height="60" as="geometry"/>
                </mxCell>
                <mxCell id="41" value="Courses" style="rounded=1;whiteSpace=wrap;html=1;fontSize=14;fillColor=#dae8fc;strokeColor=#6c8ebf;" parent="1" vertex="1">
                    <mxGeometry x="414" y="100" width="120" height="60" as="geometry"/>
                </mxCell>
                <mxCell id="42" value="" style="endArrow=classic;html=1;fontSize=14;exitX=0.75;exitY=0;exitDx=0;exitDy=0;edgeStyle=orthogonalEdgeStyle;entryX=0.364;entryY=-0.009;entryDx=0;entryDy=0;entryPerimeter=0;" parent="1" source="38" target="41" edge="1">
                    <mxGeometry width="50" height="50" relative="1" as="geometry">
                        <mxPoint x="670" y="280" as="sourcePoint"/>
                        <mxPoint x="610" y="90" as="targetPoint"/>
                        <Array as="points">
                            <mxPoint x="100" y="80"/>
                            <mxPoint x="458" y="80"/>
                        </Array>
                    </mxGeometry>
                </mxCell>
                <mxCell id="45" value="&amp;nbsp;Admins can create and manage courses&amp;nbsp;" style="edgeLabel;html=1;align=center;verticalAlign=middle;resizable=0;points=[];fontSize=11;" parent="42" vertex="1" connectable="0">
                    <mxGeometry x="-0.0618" y="1" relative="1" as="geometry">
                        <mxPoint x="55" as="offset"/>
                    </mxGeometry>
                </mxCell>
                <mxCell id="43" value="" style="endArrow=classic;html=1;fontSize=14;exitX=0.25;exitY=0;exitDx=0;exitDy=0;entryX=0.689;entryY=-0.051;entryDx=0;entryDy=0;entryPerimeter=0;edgeStyle=orthogonalEdgeStyle;" parent="1" source="38" target="41" edge="1">
                    <mxGeometry width="50" height="50" relative="1" as="geometry">
                        <mxPoint x="480" y="75" as="sourcePoint"/>
                        <mxPoint x="980" y="90" as="targetPoint"/>
                        <Array as="points">
                            <mxPoint x="480" y="50"/>
                            <mxPoint x="943" y="50"/>
                        </Array>
                    </mxGeometry>
                </mxCell>
                <mxCell id="44" value="&amp;nbsp;Users can view upcoming courses&amp;nbsp;" style="edgeLabel;html=1;align=center;verticalAlign=middle;resizable=0;points=[];fontSize=11;" parent="43" vertex="1" connectable="0">
                    <mxGeometry x="-0.2594" y="2" relative="1" as="geometry">
                        <mxPoint x="11" y="2" as="offset"/>
                    </mxGeometry>
                </mxCell>
                <mxCell id="47" value="" style="endArrow=classic;html=1;fontSize=14;entryX=0.25;entryY=0;entryDx=0;entryDy=0;exitX=1.005;exitY=0.335;exitDx=0;exitDy=0;exitPerimeter=0;edgeStyle=orthogonalEdgeStyle;" parent="1" source="38" target="39" edge="1">
                    <mxGeometry width="50" height="50" relative="1" as="geometry">
                        <mxPoint x="760" y="110" as="sourcePoint"/>
                        <mxPoint x="810" y="60" as="targetPoint"/>
                    </mxGeometry>
                </mxCell>
                <mxCell id="48" value="&amp;nbsp;Users can register for courses&lt;br&gt;by filling out forms" style="edgeLabel;html=1;align=center;verticalAlign=middle;resizable=0;points=[];fontSize=11;" parent="47" vertex="1" connectable="0">
                    <mxGeometry x="-0.2841" y="-1" relative="1" as="geometry">
                        <mxPoint as="offset"/>
                    </mxGeometry>
                </mxCell>
                <mxCell id="49" value="" style="endArrow=classic;html=1;fontSize=12;entryX=0;entryY=0.5;entryDx=0;entryDy=0;exitX=0.583;exitY=1;exitDx=0;exitDy=0;exitPerimeter=0;edgeStyle=orthogonalEdgeStyle;" parent="1" source="38" target="39" edge="1">
                    <mxGeometry width="50" height="50" relative="1" as="geometry">
                        <mxPoint x="760" y="110" as="sourcePoint"/>
                        <mxPoint x="810" y="60" as="targetPoint"/>
                    </mxGeometry>
                </mxCell>
                <mxCell id="50" value="&amp;nbsp;Admins can manage&lt;br&gt;Course Registrations&amp;nbsp;&amp;nbsp;" style="edgeLabel;html=1;align=center;verticalAlign=middle;resizable=0;points=[];fontSize=11;" parent="49" vertex="1" connectable="0">
                    <mxGeometry x="0.0824" y="-1" relative="1" as="geometry">
                        <mxPoint as="offset"/>
                    </mxGeometry>
                </mxCell>
                <mxCell id="52" value="" style="endArrow=none;startArrow=classic;html=1;fontSize=11;exitX=0.193;exitY=1.036;exitDx=0;exitDy=0;edgeStyle=orthogonalEdgeStyle;endFill=0;entryX=0.528;entryY=1.002;entryDx=0;entryDy=0;exitPerimeter=0;entryPerimeter=0;" parent="1" source="39" target="41" edge="1">
                    <mxGeometry width="50" height="50" relative="1" as="geometry">
                        <mxPoint x="1170" y="180" as="sourcePoint"/>
                        <mxPoint x="1280" y="200" as="targetPoint"/>
                        <Array as="points">
                            <mxPoint x="353" y="280"/>
                            <mxPoint x="477" y="280"/>
                        </Array>
                    </mxGeometry>
                </mxCell>
                <mxCell id="53" value="&amp;nbsp;Has registrations&amp;nbsp;" style="edgeLabel;html=1;align=center;verticalAlign=middle;resizable=0;points=[];fontSize=11;" parent="52" vertex="1" connectable="0">
                    <mxGeometry x="-0.2795" y="1" relative="1" as="geometry">
                        <mxPoint as="offset"/>
                    </mxGeometry>
                </mxCell>
                <mxCell id="54" value="&lt;font style=&quot;font-size: 20px;&quot;&gt;Course Management&lt;br&gt;Overview&lt;/font&gt;" style="text;html=1;align=center;verticalAlign=middle;resizable=0;points=[];autosize=1;strokeColor=none;fillColor=none;fontSize=18;fontStyle=4;fontColor=#0000FF;" parent="1" vertex="1">
                    <mxGeometry x="50" y="230" width="210" height="60" as="geometry"/>
                </mxCell>
            </root>
        </mxGraphModel>
    </diagram>
</mxfile>